<svg width="117" height="48" viewBox="0 0 117 48" fill="none" xmlns="http://www.w3.org/2000/svg">
<g clip-path="url(#clip0_1_7405)">
<path d="M21.3739 6.18839C20.0038 7.80971 17.8116 9.08849 15.6194 8.9058C15.3454 6.71361 16.4186 4.3844 17.6746 2.94577C19.0447 1.27878 21.4424 0.0913416 23.3834 0C23.6118 2.28354 22.7212 4.52141 21.3739 6.18839ZM23.3606 9.33968C20.1865 9.15699 17.469 11.1437 15.9619 11.1437C14.4319 11.1437 12.1256 9.43102 9.61367 9.47669C6.34821 9.52236 3.31111 11.372 1.64412 14.3178C-1.78119 20.2093 0.753541 28.9324 4.06467 33.7279C5.68599 36.1028 7.62699 38.706 10.1846 38.6147C12.6051 38.5233 13.5642 37.039 16.4871 37.039C19.4329 37.039 20.2778 38.6147 22.8354 38.569C25.4843 38.5233 27.1513 36.1941 28.7726 33.8192C30.6222 31.1246 31.3758 28.4986 31.4215 28.3616C31.3758 28.3159 26.3063 26.3749 26.2607 20.529C26.215 15.6422 30.2569 13.313 30.4396 13.176C28.156 9.79638 24.5937 9.43102 23.3606 9.33968ZM41.6974 2.71741V38.3178H47.2236V26.1465H54.8734C61.8611 26.1465 66.7707 21.3511 66.7707 14.4091C66.7707 7.46717 61.9524 2.71741 55.0561 2.71741H41.6974ZM47.2236 7.37583H53.5946C58.3901 7.37583 61.1303 9.9334 61.1303 14.432C61.1303 18.9305 58.3901 21.5109 53.5718 21.5109H47.2236V7.37583ZM76.8639 38.5918C80.3349 38.5918 83.5547 36.8335 85.0161 34.0476H85.1303V38.3178H90.2455V20.5975C90.2455 15.4596 86.1351 12.1484 79.8097 12.1484C73.941 12.1484 69.6023 15.5052 69.4424 20.118H74.4205C74.8316 17.9258 76.8639 16.4872 79.6498 16.4872C83.0295 16.4872 84.9248 18.0628 84.9248 20.9629V22.9267L78.0285 23.3378C71.6118 23.726 68.1408 26.352 68.1408 30.9191C68.1408 35.5319 71.726 38.5918 76.8639 38.5918ZM78.3482 34.3673C75.4025 34.3673 73.5299 32.9515 73.5299 30.7821C73.5299 28.5442 75.3339 27.2426 78.7821 27.0371L84.9248 26.6489V28.6584C84.9248 31.9924 82.0932 34.3673 78.3482 34.3673ZM97.0732 48C102.462 48 104.997 45.9448 107.212 39.7108L116.917 12.491H111.3L104.792 33.5224H104.677L98.1693 12.491H92.392L101.754 38.4091L101.252 39.9848C100.407 42.6565 99.0371 43.6841 96.5937 43.6841C96.1598 43.6841 95.3149 43.6384 94.9724 43.5928V47.863C95.2921 47.9543 96.6622 48 97.0732 48Z" fill="#AFAEBE"/>
</g>
<defs>
<clipPath id="clip0_1_7405">
<rect width="116.917" height="48" fill="white"/>
</clipPath>
</defs>
</svg>
