<svg width="269" height="48" viewBox="0 0 269 48" fill="none" xmlns="http://www.w3.org/2000/svg">
<path d="M74.6679 16.0494C67.347 16.0494 61.6297 21.6073 61.6297 29.0457C61.6297 36.4841 67.2043 41.9916 74.6679 41.9916C82.1315 41.9916 87.7985 36.3918 87.7985 29.0037C87.7985 21.6576 82.2239 16.0494 74.6679 16.0494ZM74.7183 36.6353C70.5457 36.6353 67.4981 33.3946 67.4981 29.0457C67.4981 24.6549 70.4953 21.4142 74.6679 21.4142C78.8825 21.4142 81.9384 24.7052 81.9384 29.0541C81.9384 33.3946 78.8825 36.6353 74.7183 36.6353ZM89.4021 21.708H93.0373V41.5215H98.8554V16.528H89.4021V21.708ZM46.9879 21.4142C50.0438 21.4142 52.4701 23.2948 53.3853 26.0989H59.5476C58.431 20.1129 53.486 16.0494 47.0382 16.0494C39.7174 16.0494 34 21.6073 34 29.0457C34 36.4925 39.5746 42 47.0382 42C53.3349 42 58.3806 37.9366 59.4972 31.9002H53.3853C52.9893 33.2741 52.1546 34.4808 51.0085 35.3358C49.8625 36.1908 48.4681 36.6472 47.0382 36.6353C42.8237 36.6353 39.8601 33.3946 39.8601 29.0457C39.8601 24.6549 42.7649 21.4142 46.9879 21.4142ZM199.912 26.6362L195.647 26.0065C193.616 25.7127 192.163 25.041 192.163 23.4459C192.163 21.708 194.052 20.8433 196.613 20.8433C199.434 20.8433 201.23 22.0438 201.608 24.0252H207.233C206.604 18.9963 202.725 16.0494 196.764 16.0494C190.61 16.0494 186.538 19.1978 186.538 23.639C186.538 27.8871 189.2 30.3554 194.581 31.1278L198.846 31.7575C200.937 32.0429 202.095 32.8657 202.095 34.4104C202.095 36.3918 200.063 37.2146 197.251 37.2146C193.809 37.2146 191.869 35.8125 191.576 33.6884H185.858C186.396 38.5662 190.224 42 197.192 42C203.548 42 207.771 39.0951 207.771 34.125C207.771 29.6754 204.715 27.3582 199.912 26.6362ZM95.9422 6.24347C95.453 6.22627 94.9654 6.30895 94.5093 6.48648C94.0531 6.66401 93.638 6.93264 93.2891 7.27599C92.9403 7.61935 92.665 8.03021 92.4803 8.48348C92.2955 8.93675 92.2051 9.42292 92.2146 9.91231C92.2146 12.0448 93.8097 13.5896 95.9422 13.5896C96.4327 13.608 96.9219 13.5259 97.3796 13.3484C97.8374 13.1709 98.254 12.9017 98.6038 12.5573C98.9537 12.2129 99.2295 11.8006 99.4143 11.3458C99.599 10.8909 99.6888 10.4031 99.6782 9.91231C99.6877 9.42219 99.597 8.9353 99.4117 8.48144C99.2265 8.02759 98.9505 7.61633 98.6007 7.27286C98.251 6.92938 97.8348 6.66092 97.3776 6.48392C96.9205 6.30692 96.432 6.2251 95.9422 6.24347ZM181.299 25.0914C181.299 19.6763 178.008 16.0578 171.023 16.0578C164.433 16.0578 160.747 19.3909 160.025 24.5121H165.793C166.087 22.5308 167.64 20.8853 170.931 20.8853C173.886 20.8853 175.339 22.1866 175.339 23.7817C175.339 25.8638 172.677 26.3927 169.378 26.7285C164.92 27.2155 159.387 28.7603 159.387 34.5616C159.387 39.0532 162.745 41.9496 168.068 41.9496C172.241 41.9496 174.86 40.2118 176.17 37.458C176.363 39.9179 178.201 41.5131 180.771 41.5131H184.162V36.3414H181.308L181.299 25.0914ZM175.59 31.3713C175.59 34.7043 172.677 37.1642 169.134 37.1642C166.951 37.1642 165.104 36.2407 165.104 34.3097C165.104 31.8498 168.068 31.1782 170.78 30.8843C173.399 30.6493 174.852 30.07 175.582 28.9534L175.59 31.3713ZM144.703 16.0494C141.463 16.0494 138.743 17.4095 136.812 19.6763V6H130.993V41.5131H136.702V38.2304C138.65 40.5979 141.404 42 144.703 42C151.688 42 156.969 36.4925 156.969 29.0457C156.969 21.6073 151.596 16.0494 144.712 16.0494H144.703ZM143.839 36.6353C139.666 36.6353 136.618 33.3946 136.618 29.0457C136.618 24.7052 139.716 21.4142 143.881 21.4142C148.104 21.4142 151.059 24.6549 151.059 29.0541C151.059 33.3946 148.003 36.6353 143.839 36.6353ZM117.082 16.0494C113.304 16.0494 110.827 17.5942 109.367 19.7687V16.5364H103.599V41.5131H109.417V27.9375C109.417 24.1175 111.843 21.4142 115.428 21.4142C118.77 21.4142 120.86 23.7817 120.86 27.2071V41.5131H126.67V26.7789C126.67 20.4991 123.429 16.0494 117.082 16.0494ZM235.493 28.2229C235.493 21.0784 230.254 16.0494 223.235 16.0494C215.763 16.0494 210.289 21.6576 210.289 29.0457C210.289 36.8284 216.149 42 223.327 42C229.389 42 234.132 38.4235 235.35 33.3526H229.288C228.415 35.569 226.283 36.8284 223.42 36.8284C219.684 36.8284 216.871 34.5112 216.25 30.4478H235.493V28.2229ZM216.586 26.292C217.509 22.8162 220.129 21.1287 223.134 21.1287C226.425 21.1287 228.952 23.0093 229.532 26.292H216.586Z" fill="#AFAEBE"/>
</svg>
