<svg width="84" height="84" viewBox="0 0 84 84" fill="none" xmlns="http://www.w3.org/2000/svg">
<rect width="84" height="84" rx="24" fill="#5271FF"/>
<path d="M52 33H32C31.2044 33 30.4413 33.3161 29.8787 33.8787C29.3161 34.4413 29 35.2044 29 36V36.5H55V36C55 35.2044 54.6839 34.4413 54.1213 33.8787C53.5587 33.3161 52.7956 33 52 33ZM29 48C29 48.7956 29.3161 49.5587 29.8787 50.1213C30.4413 50.6839 31.2044 51 32 51H52C52.7956 51 53.5587 50.6839 54.1213 50.1213C54.6839 49.5587 55 48.7956 55 48V38.5H29V48ZM33 45.5H35.5C35.7652 45.5 36.0196 45.6054 36.2071 45.7929C36.3946 45.9804 36.5 46.2348 36.5 46.5C36.5 46.7652 36.3946 47.0196 36.2071 47.2071C36.0196 47.3946 35.7652 47.5 35.5 47.5H33C32.7348 47.5 32.4804 47.3946 32.2929 47.2071C32.1054 47.0196 32 46.7652 32 46.5C32 46.2348 32.1054 45.9804 32.2929 45.7929C32.4804 45.6054 32.7348 45.5 33 45.5Z" fill="white"/>
</svg>
