<svg width="32" height="32" viewBox="0 0 32 32" fill="none" xmlns="http://www.w3.org/2000/svg">
<path d="M32 12.6787V26.8572C32 27.643 31.7202 28.3156 31.1607 28.8751C30.6012 29.4346 29.9286 29.7144 29.1429 29.7144H2.85714C2.07143 29.7144 1.39881 29.4346 0.839286 28.8751C0.279762 28.3156 0 27.643 0 26.8572V12.6787C0.52381 13.262 1.125 13.7799 1.80357 14.2322C6.1131 17.1608 9.07143 19.2144 10.6786 20.393C11.3571 20.893 11.9077 21.2828 12.3304 21.5626C12.753 21.8424 13.3155 22.1281 14.0179 22.4197C14.7202 22.7114 15.375 22.8572 15.9821 22.8572H16.0179C16.625 22.8572 17.2798 22.7114 17.9821 22.4197C18.6845 22.1281 19.247 21.8424 19.6696 21.5626C20.0923 21.2828 20.6429 20.893 21.3214 20.393C23.3452 18.9287 26.3095 16.8751 30.2143 14.2322C30.8929 13.768 31.4881 13.2501 32 12.6787ZM32 7.42868C32 8.36915 31.7083 9.26796 31.125 10.1251C30.5417 10.9822 29.8155 11.7144 28.9464 12.3215C24.4702 15.4287 21.6845 17.3632 20.5893 18.1251C20.4702 18.2084 20.2173 18.39 19.8304 18.6697C19.4435 18.9495 19.122 19.1757 18.8661 19.3483C18.6101 19.5209 18.3006 19.7144 17.9375 19.9287C17.5744 20.143 17.2321 20.3037 16.9107 20.4108C16.5893 20.518 16.2917 20.5715 16.0179 20.5715H15.9821C15.7083 20.5715 15.4107 20.518 15.0893 20.4108C14.7679 20.3037 14.4256 20.143 14.0625 19.9287C13.6994 19.7144 13.3899 19.5209 13.1339 19.3483C12.878 19.1757 12.5565 18.9495 12.1696 18.6697C11.7827 18.39 11.5298 18.2084 11.4107 18.1251C10.3274 17.3632 8.76786 16.2769 6.73214 14.8662C4.69643 13.4555 3.47619 12.6072 3.07143 12.3215C2.33333 11.8215 1.6369 11.134 0.982143 10.259C0.327381 9.38403 0 8.57153 0 7.82153C0 6.89296 0.247024 6.11915 0.741071 5.5001C1.23512 4.88106 1.94048 4.57153 2.85714 4.57153H29.1429C29.9167 4.57153 30.5863 4.8513 31.1518 5.41082C31.7173 5.97034 32 6.64296 32 7.42868Z" fill="white"/>
</svg>
