<svg width="228" height="48" viewBox="0 0 228 48" fill="none" xmlns="http://www.w3.org/2000/svg">
<path d="M209.32 13.9491L216.02 30.132H216.099L222.642 13.9491H227.266L213.16 46.4326H208.772L214.023 35.0693L204.735 13.9491H209.32ZM194.117 13.2046C197.251 13.2046 199.719 14.0274 201.522 15.7124C203.325 17.3973 204.226 19.67 204.226 22.6088V36.519H200.189V33.3843H199.994C198.231 35.9705 195.918 37.2635 193.018 37.2635C190.55 37.2635 188.473 36.519 186.789 35.0692C185.103 33.5802 184.28 31.7386 184.28 29.5443C184.28 27.2325 185.143 25.3516 186.946 23.9801C188.709 22.6088 191.06 21.9034 193.998 21.9034C196.506 21.9034 198.582 22.3737 200.229 23.2749V22.2952C200.229 20.8062 199.641 19.5916 198.465 18.5335C197.291 17.5147 195.918 17.0053 194.351 17.0053C192 17.0053 190.12 17.985 188.747 19.9834L185.026 17.6324C187.063 14.6936 190.12 13.2046 194.117 13.2046ZM172.721 3.52625C175.582 3.52625 178.012 4.46666 180.009 6.3867C182.047 8.3067 183.027 10.6185 183.027 13.3222C183.027 16.1043 182.007 18.4553 180.009 20.297C178.05 22.1779 175.621 23.1183 172.721 23.1183H165.747V36.4799H161.514V3.52625H172.721ZM194.665 25.234C192.941 25.234 191.53 25.665 190.354 26.4879C189.218 27.3499 188.63 28.3687 188.63 29.5835C188.63 30.6807 189.1 31.621 190.041 32.3263C190.981 33.0708 192.078 33.4235 193.332 33.4235C195.095 33.4235 196.702 32.7574 198.112 31.4643C199.523 30.132 200.189 28.6038 200.189 26.8014C198.858 25.7434 197.015 25.234 194.665 25.234ZM172.839 7.64058H165.747V19.1214H172.839C174.524 19.1214 175.935 18.5729 177.032 17.4365C178.168 16.3003 178.716 14.968 178.716 13.4006C178.716 11.8725 178.168 10.5401 177.032 9.40386C175.935 8.22834 174.524 7.64058 172.839 7.64058Z" fill="#AFAEBE"/>
<path d="M101.719 13.2438C104.579 13.2438 106.852 14.4977 108.028 15.9083H108.223V13.9492H113.239V35.5003C113.239 44.3558 108.028 48 101.837 48C96.0372 48 92.5499 44.0816 91.2171 40.9078L95.8029 38.9876C96.6246 40.9469 98.6238 43.2588 101.837 43.2588C105.795 43.2588 108.223 40.7902 108.223 36.2057V34.4815H108.028C106.852 35.9314 104.579 37.2244 101.719 37.2244C95.7238 37.2244 90.2387 32.0129 90.2387 25.2733C90.2387 18.4946 95.7238 13.2438 101.719 13.2438ZM136.202 13.2831C142.433 13.2831 145.45 18.2204 146.468 20.9239L147.017 22.2954L130.991 28.9175C132.205 31.3078 134.125 32.5617 136.789 32.5617C139.455 32.4833 141.336 31.1902 142.706 29.1918L146.781 31.9347C145.45 33.8939 142.276 37.2638 136.789 37.2638C129.971 37.2638 124.917 32.013 124.917 25.2735C124.917 18.1419 130.05 13.2831 136.202 13.2831ZM18.8867 0C24.5683 0 28.6042 2.23349 31.6214 5.13308L28.0165 8.73799C25.8222 6.70053 22.8834 5.09397 18.8474 5.09397C11.3633 5.09397 5.48566 11.1283 5.48566 18.6124C5.48566 26.0965 11.3241 32.1309 18.8474 32.1309C23.7062 32.1309 26.4883 30.1717 28.2516 28.4084C29.7014 26.9585 30.6419 24.8818 31.0336 22.0214H18.7299V16.9275H35.9708C36.1668 17.8287 36.2451 18.9259 36.2451 20.1014C36.2451 23.9023 35.1871 28.6435 31.8565 32.0133C28.565 35.4223 24.4116 37.2248 18.8867 37.2248C8.62042 37.2248 0 28.8785 0 18.6124C0 8.3462 8.62042 0 18.8867 0ZM50.0395 13.2438C56.6617 13.2438 62.0691 18.2986 62.0691 25.2341C62.0691 32.1305 56.6617 37.2244 50.0395 37.2244C43.4174 37.2244 38.01 32.1305 38.01 25.2341C38.01 18.2986 43.4174 13.2438 50.0395 13.2438ZM76.2132 13.2438C82.8349 13.2438 88.2423 18.2986 88.2423 25.2341C88.2423 32.1305 82.8349 37.2244 76.2132 37.2244C69.5902 37.2244 64.1827 32.1305 64.1827 25.2341C64.1827 18.2986 69.5902 13.2438 76.2132 13.2438ZM122.292 1.254V36.4804H117.042V1.254H122.292ZM50.0787 17.9851C46.4738 17.9851 43.339 20.9239 43.339 25.2341C43.339 29.5051 46.4738 32.4832 50.0787 32.4832C53.6836 32.4832 56.8184 29.5051 56.8184 25.2341C56.8184 20.9239 53.6836 17.9851 50.0787 17.9851ZM76.2132 17.9851C72.6073 17.9851 69.473 20.9239 69.473 25.2341C69.473 29.5051 72.6073 32.4832 76.2132 32.4832C79.8177 32.4832 82.952 29.5051 82.952 25.2341C82.952 20.9239 79.8177 17.9851 76.2132 17.9851ZM102.228 17.9459C98.5842 17.9459 95.5671 21.0414 95.5671 25.2733C95.5671 29.466 98.6237 32.4832 102.228 32.4832C105.795 32.4832 108.616 29.466 108.616 25.2733C108.616 21.0414 105.795 17.9459 102.228 17.9459ZM136.359 17.8677C133.694 17.8677 129.971 20.2578 130.128 24.8815L140.826 20.4145C140.238 18.9256 138.475 17.8677 136.359 17.8677Z" fill="#AFAEBE"/>
</svg>
