<svg width="101" height="32" viewBox="0 0 101 32" fill="none" xmlns="http://www.w3.org/2000/svg">
<path d="M96.3483 9.74683H100.615L95.7723 20.7548C94.215 24.2962 92.807 25.5548 89.8203 25.5548H88.455V22.1628H89.5643C91.079 22.1628 91.527 21.7575 92.0603 20.3282L87.303 9.74683H91.6123L94.0656 16.1042L96.3483 9.74683Z" fill="white"/>
<path d="M83.0923 9.74661H86.0576V21.2666H82.9856L82.6443 20.4559C81.7056 21.2239 80.511 21.6506 79.167 21.6506C75.647 21.6506 73.1296 19.0906 73.1296 15.5066C73.1296 11.9439 75.647 9.40527 79.167 9.40527C80.5323 9.40527 81.7483 9.85327 82.687 10.6426L83.0923 9.74661ZM79.7003 18.1519C81.1936 18.1519 82.2816 17.0213 82.2816 15.5066C82.2816 14.0133 81.1936 12.9039 79.7003 12.9039C78.207 12.9039 77.119 14.0133 77.119 15.5066C77.119 17.0213 78.207 18.1519 79.7003 18.1519Z" fill="white"/>
<path d="M66.6527 6.33325C69.8313 6.33325 72.1994 8.61592 72.1994 11.7306C72.1994 14.8666 69.8313 17.1493 66.6527 17.1493H64.4127V21.2666H60.2953V6.33325H66.6527ZM66.162 13.5653C67.25 13.5653 67.954 12.8186 67.954 11.7519C67.954 10.6853 67.25 9.93859 66.162 9.93859H64.4127V13.5653H66.162Z" fill="white"/>
<path d="M56.729 17.8105H58.2437V21.2666H55.513C52.9743 21.2666 51.417 19.7092 51.417 17.1492V12.8185H49.305V11.8799L54.4677 6.39722H55.2997V9.74655H58.1797V12.8185H55.385V16.4879C55.385 17.2986 55.897 17.8105 56.729 17.8105Z" fill="white"/>
<path d="M42.716 21.6506C39.0253 21.6506 36.3586 19.0693 36.3586 15.5066C36.3586 11.9439 39.004 9.40527 42.7373 9.40527C45.98 9.40527 48.3906 11.4319 48.8386 14.5039H44.956C44.636 13.5653 43.7613 12.9466 42.716 12.9466C41.3293 12.9466 40.3266 14.0133 40.3266 15.5066C40.3266 17.0213 41.3293 18.1093 42.716 18.1093C43.7826 18.1093 44.6573 17.4479 44.9773 16.4239H48.8813C48.4333 19.5386 45.9586 21.6506 42.716 21.6506Z" fill="white"/>
<path d="M31.5505 9.74661H34.516V21.2666H31.4439L31.1025 20.4559C30.1639 21.2239 28.9692 21.6506 27.6252 21.6506C24.1052 21.6506 21.5878 19.0906 21.5878 15.5066C21.5878 11.9439 24.1052 9.40527 27.6252 9.40527C28.9905 9.40527 30.2065 9.85327 31.1452 10.6426L31.5505 9.74661ZM28.1585 18.1519C29.6519 18.1519 30.7399 17.0213 30.7399 15.5066C30.7399 14.0133 29.6519 12.9039 28.1585 12.9039C26.6652 12.9039 25.5772 14.0133 25.5772 15.5066C25.5772 17.0213 26.6652 18.1519 28.1585 18.1519Z" fill="white"/>
<path d="M19.8793 9.70386H20.946V13.3305H19.3886C18.002 13.3305 17.4046 13.9492 17.4046 15.4212V21.2665H13.4366V9.74652H16.1033L16.722 11.0265C17.5326 10.0879 18.514 9.70386 19.8793 9.70386Z" fill="white"/>
<path d="M12.2453 6.33325V10.0453H8.192V21.2666H4.05333V10.0453H0V6.33325H12.2453Z" fill="white"/>
</svg>
