<svg width="84" height="84" viewBox="0 0 84 84" fill="none" xmlns="http://www.w3.org/2000/svg">
<rect width="84" height="84" rx="24" fill="#5271FF"/>
<g clip-path="url(#clip0_1_241)">
<path d="M45.0874 41.9913L40.2152 39.822C39.5691 39.5343 39.0637 39.0018 38.8102 38.3415C38.5568 37.6812 38.576 36.9473 38.8637 36.3012C39.1513 35.6551 39.6839 35.1498 40.3441 34.8963C41.0044 34.6429 41.7383 34.6621 42.3844 34.9497L48.4747 37.6613C48.7978 37.8052 49.0505 38.0714 49.1772 38.4016C49.3039 38.7317 49.2943 39.0987 49.1505 39.4217C49.0066 39.7448 48.997 40.1117 49.1238 40.4418C49.2505 40.772 49.5032 41.0382 49.8262 41.1821C50.1493 41.3259 50.5162 41.3355 50.8464 41.2088C51.1765 41.0821 51.4428 40.8294 51.5866 40.5063C52.0181 39.5372 52.0469 38.4363 51.6667 37.4459C51.2865 36.4555 50.5285 35.6567 49.5594 35.2252L47.1232 34.1406L48.2079 31.7045C48.3517 31.3814 48.3613 31.0144 48.2346 30.6843C48.1078 30.3542 47.8552 30.0879 47.5321 29.9441C47.2091 29.8002 46.8421 29.7906 46.512 29.9174C46.1818 30.0441 45.9156 30.2968 45.7717 30.6198L44.6871 33.0559L43.4691 32.5136C42.1769 31.9383 40.709 31.8999 39.3885 32.4068C38.068 32.9137 37.0029 33.9244 36.4275 35.2166C35.8522 36.5088 35.8138 37.9766 36.3207 39.2972C36.8276 40.6177 37.8383 41.6828 39.1305 42.2581L44.0028 44.4274C44.6489 44.715 45.1542 45.2476 45.4077 45.9078C45.6611 46.5681 45.6419 47.302 45.3543 47.9481C45.0666 48.5942 44.5341 49.0996 43.8738 49.353C43.2135 49.6065 42.4796 49.5873 41.8335 49.2996L35.7432 46.588C35.4202 46.4442 35.1675 46.1779 35.0407 45.8478C34.914 45.5177 34.9236 45.1507 35.0675 44.8277C35.2113 44.5046 35.2209 44.1377 35.0942 43.8075C34.9674 43.4774 34.7148 43.2111 34.3917 43.0673C34.0687 42.9235 33.7017 42.9138 33.3716 43.0406C33.0414 43.1673 32.7752 43.42 32.6313 43.743C32.1998 44.7122 32.171 45.813 32.5512 46.8035C32.9314 47.7939 33.6894 48.5927 34.6586 49.0242L37.0947 50.1088L36.0101 52.5449C35.8662 52.868 35.8566 53.2349 35.9833 53.5651C36.1101 53.8952 36.3628 54.1615 36.6858 54.3053C37.0089 54.4491 37.3758 54.4587 37.7059 54.332C38.0361 54.2053 38.3024 53.9526 38.4462 53.6295L39.5308 51.1934L40.7489 51.7357C42.0411 52.3111 43.5089 52.3495 44.8294 51.8426C46.15 51.3357 47.2151 50.325 47.7904 49.0328C48.3657 47.7406 48.4041 46.2727 47.8972 44.9522C47.3903 43.6317 46.3796 42.5666 45.0874 41.9913Z" fill="white"/>
</g>
<defs>
<clipPath id="clip0_1_241">
<rect width="32" height="32" fill="white" transform="translate(34 21.0001) rotate(24)"/>
</clipPath>
</defs>
</svg>
