<svg width="190" height="48" viewBox="0 0 190 48" fill="none" xmlns="http://www.w3.org/2000/svg">
<path d="M34.6337 3.61936C32.411 1.08606 28.3933 -2.67029e-05 23.2537 -2.67029e-05H8.3367C7.82791 -0.000297546 7.33573 0.181034 6.94872 0.511326C6.56172 0.841621 6.3053 1.29919 6.22561 1.8017L0.0171616 41.1967C-0.0116261 41.3794 -0.000452594 41.5663 0.049913 41.7443C0.100279 41.9223 0.188639 42.0873 0.308905 42.2279C0.429172 42.3685 0.578486 42.4813 0.746562 42.5586C0.914637 42.636 1.09748 42.6759 1.28249 42.6758H10.4916L12.8045 28.0057L12.7328 28.4651C12.811 27.9636 13.0657 27.5065 13.451 27.1762C13.8364 26.8458 14.327 26.664 14.8346 26.6634H19.2108C27.8078 26.6634 34.5394 23.1715 36.5058 13.0701C36.5642 12.7714 36.6146 12.4806 36.6584 12.1965C37.2426 8.46291 36.6545 5.92164 34.635 3.62069" fill="#AFAEBE"/>
<path d="M147.374 22.3656C146.811 26.0619 143.988 26.0619 141.258 26.0619H139.705L140.795 19.1604C140.861 18.7435 141.22 18.4368 141.642 18.4368H142.355C144.214 18.4368 145.969 18.4368 146.874 19.495C147.415 20.1283 147.578 21.0684 147.374 22.3656ZM146.185 12.7209H135.887C135.546 12.7211 135.217 12.8428 134.957 13.0643C134.698 13.2857 134.526 13.5924 134.472 13.9292L130.311 40.3337C130.292 40.4561 130.299 40.5812 130.333 40.7004C130.367 40.8196 130.426 40.9302 130.507 41.0244C130.587 41.1186 130.687 41.1943 130.799 41.2463C130.912 41.2982 131.034 41.3253 131.158 41.3255H136.442C136.935 41.3255 137.355 40.967 137.432 40.4811L138.613 32.9927C138.722 32.2983 139.322 31.7845 140.026 31.7845H143.284C150.069 31.7845 153.983 28.5036 155.005 21.9964C155.466 19.1525 155.024 16.9166 153.692 15.3512C152.228 13.6304 149.632 12.7196 146.187 12.7196" fill="#AFAEBE"/>
<path d="M73.9238 22.3655C73.3608 26.0619 70.5381 26.0619 67.8069 26.0619H66.2535L67.3436 19.1604C67.4099 18.7435 67.7684 18.4368 68.1906 18.4368H68.9036C70.7625 18.4368 72.5177 18.4368 73.4232 19.495C73.9649 20.1283 74.1282 21.0683 73.9238 22.3655ZM72.7355 12.7209H62.4376C61.7339 12.7209 61.1338 13.2334 61.0236 13.9291L56.8611 40.3336C56.8418 40.4561 56.8492 40.5813 56.8828 40.7006C56.9165 40.8199 56.9756 40.9305 57.0561 41.0248C57.1366 41.1191 57.2366 41.1947 57.3492 41.2467C57.4618 41.2986 57.5843 41.3254 57.7082 41.3255H62.6261C63.3298 41.3255 63.9286 40.813 64.0388 40.1172L65.1634 32.994C65.2723 32.2982 65.8724 31.7857 66.5761 31.7857H69.8344C76.6191 31.7857 80.5332 28.5036 81.5556 21.9964C82.0163 19.1524 81.5741 16.9165 80.2424 15.3511C78.7779 13.6304 76.1822 12.7196 72.7368 12.7196M96.6438 31.8455C96.1659 34.6629 93.9313 36.5549 91.078 36.5549C89.648 36.5549 88.5022 36.0942 87.7667 35.2232C87.0364 34.3602 86.7629 33.1294 86.9939 31.7605C87.4374 28.967 89.7104 27.0152 92.5199 27.0152C93.9207 27.0152 95.0559 27.4799 95.8074 28.3589C96.5628 29.2445 96.8603 30.4819 96.6438 31.8455ZM103.516 22.246H98.585C98.38 22.2458 98.1817 22.3188 98.0258 22.452C97.87 22.5852 97.7669 22.7698 97.7352 22.9723L97.5201 24.3505L97.1749 23.8512C96.1074 22.3018 93.7268 21.7826 91.3502 21.7826C85.9025 21.7826 81.2488 25.9119 80.3433 31.7008C79.872 34.5912 80.5412 37.3516 82.1796 39.2781C83.6839 41.048 85.8308 41.7849 88.3894 41.7849C92.7815 41.7849 95.2165 38.9648 95.2165 38.9648L94.9961 40.335C94.9767 40.4575 94.9842 40.5828 95.0179 40.7022C95.0516 40.8217 95.1109 40.9323 95.1915 41.0266C95.2722 41.1209 95.3723 41.1966 95.4851 41.2484C95.5978 41.3002 95.7205 41.327 95.8446 41.3268H100.284C100.988 41.3268 101.588 40.8156 101.698 40.1186L104.365 23.2392C104.384 23.1165 104.376 22.9912 104.342 22.8718C104.308 22.7524 104.249 22.6417 104.168 22.5475C104.087 22.4532 103.987 22.3776 103.874 22.3258C103.762 22.2739 103.639 22.2472 103.515 22.2473" fill="#AFAEBE"/>
<path d="M170.094 31.8455C169.616 34.6629 167.381 36.5549 164.528 36.5549C163.098 36.5549 161.952 36.0942 161.217 35.2232C160.486 34.3602 160.213 33.1294 160.444 31.7605C160.887 28.967 163.159 27.0152 165.97 27.0152C167.371 27.0152 168.506 27.4799 169.257 28.3589C170.013 29.2445 170.31 30.4819 170.094 31.8455ZM176.966 22.246H172.035C171.83 22.2458 171.632 22.3188 171.476 22.452C171.32 22.5852 171.217 22.7697 171.185 22.9723L170.97 24.3505L170.625 23.8512C169.557 22.3018 167.177 21.7826 164.8 21.7826C159.354 21.7826 154.7 25.9119 153.793 31.7008C153.322 34.5912 153.992 37.3516 155.631 39.2781C157.135 41.048 159.282 41.7849 161.841 41.7849C166.234 41.7849 168.669 38.9648 168.669 38.9648L168.449 40.335C168.429 40.4574 168.436 40.5826 168.469 40.702C168.503 40.8215 168.562 40.9322 168.642 41.0265C168.723 41.1209 168.823 41.1966 168.935 41.2485C169.048 41.3003 169.17 41.327 169.294 41.3268H173.733C174.437 41.3268 175.037 40.8156 175.148 40.1186L177.814 23.2392C177.834 23.1165 177.826 22.9912 177.792 22.8718C177.758 22.7524 177.699 22.6417 177.618 22.5475C177.537 22.4532 177.437 22.3776 177.324 22.3258C177.212 22.2739 177.089 22.2472 176.965 22.2473" fill="#AFAEBE"/>
<path d="M129.78 22.2474H124.822C124.348 22.2474 123.906 22.4824 123.641 22.8754L116.803 32.9449L113.904 23.2684C113.816 22.9733 113.635 22.7145 113.388 22.5303C113.141 22.3462 112.841 22.2465 112.533 22.2461H107.661C107.525 22.2461 107.39 22.2788 107.269 22.3413C107.147 22.4038 107.042 22.4944 106.963 22.6055C106.883 22.7166 106.832 22.8451 106.812 22.9802C106.792 23.1154 106.805 23.2533 106.849 23.3826L112.306 39.403L107.173 46.6457C107.082 46.7743 107.028 46.9253 107.018 47.0823C107.007 47.2392 107.039 47.3961 107.112 47.5359C107.184 47.6756 107.293 47.7928 107.428 47.8746C107.562 47.9565 107.716 47.9998 107.874 48H112.826C113.294 48 113.733 47.7703 114.001 47.3853L130.484 23.595C130.573 23.4664 130.626 23.3158 130.636 23.1594C130.646 23.0031 130.612 22.847 130.54 22.7081C130.467 22.5692 130.358 22.4529 130.224 22.3717C130.09 22.2904 129.937 22.2475 129.78 22.2474Z" fill="#AFAEBE"/>
<path d="M182.778 13.4472L178.55 40.335C178.531 40.4576 178.538 40.5828 178.572 40.7021C178.606 40.8214 178.665 40.932 178.746 41.0262C178.827 41.1204 178.927 41.1961 179.039 41.248C179.152 41.2999 179.274 41.3268 179.398 41.3268H183.648C184.352 41.3268 184.952 40.8143 185.063 40.1186L189.23 13.7128C189.25 13.5902 189.242 13.4649 189.209 13.3455C189.175 13.2261 189.116 13.1154 189.035 13.0211C188.954 12.9268 188.854 12.8512 188.741 12.7993C188.629 12.7475 188.506 12.7208 188.382 12.721H183.626C183.421 12.7204 183.223 12.7933 183.067 12.9263C182.912 13.0593 182.809 13.2449 182.778 13.4472Z" fill="#AFAEBE"/>
<path d="M34.6337 3.61936C32.411 1.08606 28.3933 -2.67029e-05 23.2537 -2.67029e-05H8.3367C7.82791 -0.000297546 7.33573 0.181034 6.94872 0.511326C6.56172 0.841621 6.3053 1.29919 6.22561 1.8017L0.0171616 41.1967C-0.0116261 41.3794 -0.000452594 41.5663 0.049913 41.7443C0.100279 41.9223 0.188639 42.0873 0.308905 42.2279C0.429172 42.3685 0.578486 42.4813 0.746562 42.5586C0.914637 42.636 1.09748 42.6759 1.28249 42.6758H10.4916L12.8045 28.0057L12.7328 28.4651C12.811 27.9636 13.0657 27.5065 13.451 27.1762C13.8364 26.8458 14.327 26.664 14.8346 26.6634H19.2108C27.8078 26.6634 34.5394 23.1715 36.5058 13.0701C36.5642 12.7714 36.6146 12.4806 36.6584 12.1965C37.2426 8.46291 36.6545 5.92164 34.635 3.62069" fill="#AFAEBE"/>
<path d="M15.2887 12.2456C15.3585 11.8065 15.5825 11.4067 15.9204 11.1178C16.2584 10.829 16.6883 10.6701 17.1329 10.6696H28.8275C30.2123 10.6696 31.5042 10.7599 32.6846 10.9484C33.3299 11.0522 33.9684 11.195 34.5965 11.3759C35.3098 11.5765 36 11.8515 36.6558 12.1965C37.2427 8.46157 36.6531 5.92163 34.6337 3.61935C32.4097 1.08737 28.3934 0.00128555 23.2537 0.00128555H8.33538C7.82704 0.00164795 7.3355 0.183262 6.94904 0.513496C6.56259 0.843735 6.30656 1.30096 6.22695 1.80302L0.0158379 41.194C-0.0131447 41.3768 -0.00216205 41.5636 0.0480296 41.7417C0.0982212 41.9198 0.186428 42.0849 0.306572 42.2256C0.426716 42.3663 0.57594 42.4793 0.743962 42.5568C0.911983 42.6343 1.09481 42.6744 1.27983 42.6744H10.4903L12.8032 28.0031L15.2887 12.2456Z" fill="#AFAEBE"/>
<path d="M36.6571 12.1952C36.6115 12.4873 36.5606 12.7786 36.5044 13.0688C34.5381 23.1688 27.8065 26.6621 19.2095 26.6621H14.8319C14.3245 26.6625 13.8338 26.8443 13.4486 27.1747C13.0635 27.5051 12.8091 27.9623 12.7315 28.4638L10.4903 42.6732L9.85296 46.7041C9.82762 46.8642 9.83729 47.0278 9.88129 47.1837C9.92529 47.3397 10.0026 47.4842 10.1078 47.6074C10.2131 47.7306 10.3438 47.8294 10.491 47.8972C10.6381 47.965 10.7983 48.0001 10.9603 48H18.7235C19.6423 48 20.423 47.3308 20.5677 46.424L20.6434 46.0283L22.1066 36.7555L22.1995 36.243C22.2691 35.8036 22.4932 35.4034 22.8315 35.1145C23.1698 34.8256 23.6001 34.6669 24.045 34.667H25.2068C32.727 34.667 38.6155 31.6132 40.3363 22.7758C41.0532 19.0848 40.6815 16.0004 38.7828 13.8349C38.1799 13.1635 37.4596 12.6079 36.6571 12.1952Z" fill="#AFAEBE"/>
<path d="M34.5978 11.376C34.2977 11.287 33.9884 11.2073 33.6697 11.137C33.3511 11.0666 33.0218 11.0042 32.6846 10.9511C31.5029 10.7586 30.2123 10.6683 28.8262 10.6683H17.1329C16.6878 10.6677 16.2572 10.8265 15.919 11.1158C15.5807 11.4051 15.3572 11.8058 15.2887 12.2456L12.8032 28.0057L12.7315 28.4638C12.8091 27.9623 13.0635 27.5051 13.4486 27.1747C13.8338 26.8442 14.3245 26.6624 14.8319 26.6621H19.2095C27.8065 26.6621 34.5381 23.1702 36.5044 13.0688C36.5628 12.7701 36.612 12.4806 36.6571 12.1952C36.1378 11.9234 35.5969 11.6952 35.0399 11.5127C34.8952 11.4649 34.7478 11.4211 34.5978 11.376Z" fill="#AFAEBE"/>
</svg>
