<svg width="154" height="49" viewBox="0 0 154 49" fill="none" xmlns="http://www.w3.org/2000/svg">
<path d="M152.606 14.7695C151.211 10.7946 147.422 7.94108 142.986 7.94108H142.887C139.996 7.94108 137.392 9.14977 135.535 11.0812C134.585 10.0882 133.444 9.29799 132.181 8.75829C130.917 8.21859 129.557 7.94059 128.183 7.94108H128.096C125.554 7.94108 123.224 8.87563 121.442 10.4083V9.63573C121.38 8.85071 120.744 8.24014 119.947 8.24014H113.118C112.283 8.24014 111.61 8.91301 111.61 9.74788V46.806C111.61 47.6409 112.283 48.3137 113.118 48.3137H119.947C120.309 48.3139 120.659 48.1827 120.932 47.9444C121.204 47.706 121.381 47.3768 121.429 47.0178V20.4142C121.429 20.3146 121.429 20.2398 121.442 20.1526C121.554 18.9688 122.426 17.9844 123.797 17.8723H125.056C125.629 17.9221 126.115 18.1215 126.489 18.433C127.087 18.9065 127.411 19.6292 127.411 20.4267L127.436 46.8932C127.436 47.7281 128.108 48.4134 128.943 48.4134H135.772C136.158 48.4138 136.529 48.2648 136.808 47.9977C137.086 47.7306 137.251 47.3661 137.267 46.9804V20.4018C137.267 19.5295 137.666 18.732 138.376 18.271C138.725 18.0467 139.149 17.8972 139.635 17.8473H140.893C142.376 17.9719 143.261 19.0934 143.261 20.4018L143.286 46.8434C143.286 47.6782 143.958 48.3511 144.793 48.3511H151.622C152.419 48.3511 153.08 47.7281 153.129 46.9431V17.947C153.092 16.3147 152.88 15.5546 152.606 14.7695ZM106.402 8.33982H102.502V1.98486C102.501 1.78174 102.455 1.58129 102.368 1.39788C102.281 1.21448 102.154 1.05266 101.997 0.924033C101.839 0.795406 101.656 0.703155 101.459 0.653895C101.262 0.604635 101.056 0.599586 100.857 0.639109C96.533 1.82288 97.3928 7.81647 89.4927 8.32736H88.7326C88.6205 8.32736 88.5083 8.33982 88.3962 8.36474C87.7357 8.52673 87.2249 9.12484 87.2249 9.84756V16.676C87.2249 17.5109 87.8977 18.1838 88.7326 18.1838H92.8446L92.8322 47.1175C92.8322 47.9399 93.505 48.6128 94.3274 48.6128H101.081C101.904 48.6128 102.576 47.9399 102.576 47.1175V18.1838H106.402C107.224 18.1838 107.91 17.4984 107.91 16.676V9.84756C107.91 9.0127 107.237 8.33982 106.402 8.33982Z" fill="#AFAEBE"/>
<path d="M81.8543 8.33985H75.0259C74.2035 8.33985 73.5181 9.01273 73.5181 9.8476V23.9656C73.5057 24.8378 72.7954 25.5356 71.9231 25.5356H69.0696C68.1849 25.5356 67.4622 24.8254 67.4622 23.9406L67.4373 9.8476C67.4373 9.01273 66.7644 8.33985 65.9296 8.33985H59.1011C58.2662 8.33985 57.5933 9.01273 57.5933 9.8476V25.3113C57.5933 31.1803 61.7801 35.3796 67.6616 35.3796C67.6616 35.3796 72.0727 35.3796 72.2097 35.4045C73.0072 35.4917 73.6178 36.1646 73.6178 36.987C73.6178 37.7969 73.0197 38.4698 72.2222 38.5695C72.1848 38.5695 72.1474 38.582 72.1101 38.5944L62.129 38.6318C61.2942 38.6318 60.6213 39.3047 60.6213 40.1396V46.9556C60.6213 47.7904 61.2942 48.4633 62.129 48.4633H73.2814C79.1628 48.4633 83.3496 44.2765 83.3496 38.4075V9.8476C83.3621 9.01273 82.6892 8.33985 81.8543 8.33985ZM43.0268 8.37724H33.5567C32.7218 8.37724 32.0365 9.01273 32.0365 9.78529V16.1901C32.0365 17.0125 32.7592 17.6978 33.6439 17.6978H42.6654C43.3757 17.81 43.9364 18.3333 44.0236 19.1433V20.028C43.9489 20.8006 43.3881 21.3613 42.7028 21.4236H38.2419C32.2981 21.4236 28.074 25.3736 28.074 30.9062V38.8436C28.074 44.3513 31.7125 48.2639 37.6064 48.2639H49.9799C52.1979 48.2639 54.0047 46.5817 54.0047 44.5133V18.6199C54.0047 12.3397 50.7649 8.37724 43.0268 8.37724ZM44.1109 36.8624V37.934C44.1109 38.0212 44.0984 38.1085 44.0859 38.1832C44.0735 38.258 44.0486 38.3328 44.0236 38.4075C43.8118 39.0056 43.2137 39.4418 42.5034 39.4418H39.6624C38.7777 39.4418 38.055 38.7689 38.055 37.934V32.0899C38.055 31.2675 38.7777 30.5947 39.6624 30.5947H42.5034C43.3881 30.5947 44.1109 31.2675 44.1109 32.1024V36.8624ZM16.3983 8.32739H1.48282C0.660417 8.32739 0 9.00027 0 9.81022V46.8933C0 47.7157 0.610574 48.3885 1.38314 48.401H8.33621C9.17107 48.401 9.84395 47.7281 9.84395 46.8933L9.86887 36.526H16.3983C21.8561 36.526 25.669 32.7379 25.669 27.2427V17.6231C25.669 12.1404 21.8561 8.32739 16.3983 8.32739ZM15.8002 20.8379V25.0497C15.8002 25.9344 15.0899 26.6571 14.2052 26.6571H9.88133V18.2212H14.2052C15.0899 18.2212 15.8002 18.9314 15.8002 19.8162V20.8379Z" fill="#AFAEBE"/>
</svg>
