<svg width="140" height="32" viewBox="0 0 140 32" fill="none" xmlns="http://www.w3.org/2000/svg">
<path d="M1.48611 1.3471C1.13812 1.70227 0.936737 2.25524 0.936737 2.97135V28.5147C0.936737 29.2308 1.13812 29.7838 1.48611 30.1389L1.572 30.2169L16.2526 15.9091V15.5712L1.572 1.26336L1.48611 1.3471Z" fill="white"/>
<path d="M22.9177 20.6807L18.0296 15.909V15.5712L22.9236 10.7995L23.0332 10.8616L28.829 14.0769C30.4831 14.9894 30.4831 16.4909 28.829 17.4091L23.0332 20.6187L22.9177 20.6807Z" fill="white"/>
<path d="M22.1447 21.5072L17.1411 16.6286L2.37458 31.0274C2.92396 31.5905 3.81984 31.6584 4.83863 31.0953L22.1447 21.5072Z" fill="white"/>
<path d="M22.1447 9.97313L4.83863 0.384995C3.81984 -0.172304 2.92396 -0.104448 2.37458 0.458626L17.1411 14.8517L22.1447 9.97313Z" fill="white"/>
<path d="M46.1855 4.47144C46.1855 5.43589 45.8893 6.20831 45.3059 6.78438C44.6351 7.46729 43.7614 7.8109 42.6908 7.8109C41.6676 7.8109 40.7939 7.46151 40.0772 6.77283C39.359 6.07404 39.0007 5.21643 39.0007 4.18991C39.0007 3.16338 39.359 2.30578 40.0772 1.61276C40.7939 0.918304 41.6676 0.568909 42.6908 0.568909C43.2002 0.568909 43.6859 0.671417 44.1494 0.861996C44.6114 1.05402 44.9875 1.3139 45.26 1.63442L44.641 2.24369C44.1657 1.6965 43.5186 1.42651 42.6908 1.42651C41.9445 1.42651 41.2974 1.68062 40.748 2.19316C40.2046 2.70715 39.9321 3.37273 39.9321 4.18991C39.9321 5.00709 40.2046 5.67844 40.748 6.19243C41.2974 6.69919 41.9445 6.95907 42.6908 6.95907C43.4831 6.95907 44.1494 6.69919 44.6751 6.18665C45.0216 5.84737 45.2185 5.37958 45.2704 4.78186H42.6908V3.94735H46.1322C46.1737 4.12782 46.1855 4.30252 46.1855 4.47144Z" fill="white"/>
<path d="M51.6452 1.5781H48.4126V3.77265H51.3268V4.60715H48.4126V6.8017H51.6452V7.65208H47.4975V0.727718H51.6452V1.5781Z" fill="white"/>
<path d="M55.4982 7.65208H54.5831V1.5781H52.6003V0.727718H57.4825V1.5781H55.4982V7.65208Z" fill="white"/>
<path d="M61.0157 7.65208V0.727718H61.9294V7.65208H61.0157Z" fill="white"/>
<path d="M65.9793 7.65208H65.0716V1.5781H63.0814V0.727718H67.9695V1.5781H65.9793V7.65208Z" fill="white"/>
<path d="M77.2127 6.76128C76.5123 7.46151 75.6445 7.8109 74.6094 7.8109C73.5684 7.8109 72.7007 7.46151 72.0003 6.76128C71.3013 6.06249 70.9533 5.20488 70.9533 4.18991C70.9533 3.17493 71.3013 2.31733 72.0003 1.61854C72.7007 0.918304 73.5684 0.568909 74.6094 0.568909C75.6386 0.568909 76.5064 0.918303 77.2068 1.62431C77.9116 2.32888 78.2596 3.18071 78.2596 4.18991C78.2596 5.20488 77.9116 6.06249 77.2127 6.76128ZM72.677 6.18088C73.2042 6.6992 73.8453 6.95907 74.6094 6.95907C75.3676 6.95907 76.0147 6.6992 76.536 6.18088C77.0617 5.66256 77.3282 4.99698 77.3282 4.18991C77.3282 3.38284 77.0617 2.71725 76.536 2.19894C76.0147 1.68062 75.3676 1.42074 74.6094 1.42074C73.8453 1.42074 73.2042 1.68062 72.677 2.19894C72.1513 2.71725 71.8848 3.38284 71.8848 4.18991C71.8848 4.99698 72.1513 5.66256 72.677 6.18088Z" fill="white"/>
<path d="M79.5435 7.65208V0.727718H80.6541L84.1073 6.11301H84.1473L84.1073 4.78185V0.727718H85.021V7.65208H84.0673L80.4512 2.00113H80.4112L80.4512 3.33807V7.65208H79.5435Z" fill="white"/>
<path d="M70.7283 17.7643C67.9458 17.7643 65.6728 19.8289 65.6728 22.6775C65.6728 25.503 67.9458 27.5893 70.7283 27.5893C73.5166 27.5893 75.7896 25.503 75.7896 22.6775C75.7896 19.8289 73.5166 17.7643 70.7283 17.7643ZM70.7283 25.6546C69.2016 25.6546 67.8881 24.4259 67.8881 22.6775C67.8881 20.906 69.2016 19.699 70.7283 19.699C72.255 19.699 73.5744 20.906 73.5744 22.6775C73.5744 24.4259 72.255 25.6546 70.7283 25.6546ZM59.6978 17.7643C56.9095 17.7643 54.6424 19.8289 54.6424 22.6775C54.6424 25.503 56.9095 27.5893 59.6978 27.5893C62.4847 27.5893 64.7532 25.503 64.7532 22.6775C64.7532 19.8289 62.4847 17.7643 59.6978 17.7643ZM59.6978 25.6546C58.1696 25.6546 56.8517 24.4259 56.8517 22.6775C56.8517 20.906 58.1696 19.699 59.6978 19.699C61.2245 19.699 62.538 20.906 62.538 22.6775C62.538 24.4259 61.2245 25.6546 59.6978 25.6546ZM46.572 19.2702V21.3579H51.6852C51.5356 22.5245 51.1358 23.3821 50.5228 23.9798C49.7764 24.7017 48.614 25.503 46.572 25.503C43.4253 25.503 40.9613 23.0269 40.9613 19.9589C40.9613 16.8909 43.4253 14.4148 46.572 14.4148C48.2734 14.4148 49.5114 15.063 50.425 15.9033L51.934 14.4321C50.656 13.2424 48.9561 12.3285 46.572 12.3285C42.257 12.3285 38.6305 15.7517 38.6305 19.9589C38.6305 24.1661 42.257 27.5893 46.572 27.5893C48.9043 27.5893 50.656 26.8443 52.0332 25.4467C53.4444 24.0708 53.8842 22.1361 53.8842 20.5739C53.8842 20.0888 53.8427 19.6427 53.7687 19.2702H46.572ZM100.245 20.8887C99.8289 19.79 98.5451 17.7643 95.93 17.7643C93.3386 17.7643 91.1811 19.7553 91.1811 22.6775C91.1811 25.4294 93.3164 27.5893 96.1788 27.5893C98.4932 27.5893 99.8289 26.2133 100.378 25.412L98.6606 24.296C98.0875 25.1132 97.3071 25.6546 96.1788 25.6546C95.0578 25.6546 94.2537 25.1536 93.7384 24.1661L100.478 21.4474L100.245 20.8887ZM93.3741 22.5245C93.3164 20.6302 94.8831 19.66 96.0055 19.66C96.8851 19.66 97.6314 20.0888 97.8802 20.7024L93.3741 22.5245ZM87.8967 27.2904H90.1119V12.8526H87.8967V27.2904ZM84.2687 18.8587H84.1947C83.6971 18.2841 82.7479 17.7643 81.5455 17.7643C79.0222 17.7643 76.7151 19.9242 76.7151 22.6934C76.7151 25.4467 79.0222 27.5893 81.5455 27.5893C82.7479 27.5893 83.6971 27.0652 84.1947 26.4732H84.2687V27.1778C84.2687 29.0561 83.2395 30.0653 81.5796 30.0653C80.2261 30.0653 79.3865 29.1124 79.04 28.3111L77.1135 29.0951C77.6688 30.3974 79.1392 32 81.5796 32C84.1769 32 86.3685 30.51 86.3685 26.8847V18.0632H84.2687V18.8587ZM81.7351 25.6546C80.2084 25.6546 78.9304 24.4086 78.9304 22.6934C78.9304 20.9623 80.2084 19.699 81.7351 19.699C83.2395 19.699 84.4257 20.9623 84.4257 22.6934C84.4257 24.4086 83.2395 25.6546 81.7351 25.6546ZM110.617 12.8526H105.318V27.2904H107.528V21.8199H110.617C113.07 21.8199 115.477 20.0888 115.477 17.3355C115.477 14.5837 113.064 12.8526 110.617 12.8526ZM110.674 19.8116H107.528V14.8609H110.674C112.324 14.8609 113.266 16.1964 113.266 17.3355C113.266 18.453 112.324 19.8116 110.674 19.8116ZM124.332 17.7369C122.735 17.7369 121.075 18.4241 120.393 19.9473L122.353 20.7486C122.775 19.9473 123.551 19.6875 124.372 19.6875C125.518 19.6875 126.68 20.3588 126.698 21.5442V21.6957C126.298 21.4705 125.442 21.137 124.389 21.137C122.278 21.137 120.126 22.2704 120.126 24.3855C120.126 26.3202 121.856 27.5662 123.8 27.5662C125.287 27.5662 126.107 26.9121 126.623 26.1513H126.698V27.2673H128.832V21.729C128.832 19.1691 126.871 17.7369 124.332 17.7369ZM124.065 25.6488C123.343 25.6488 122.336 25.2994 122.336 24.4259C122.336 23.3085 123.591 22.8796 124.678 22.8796C125.651 22.8796 126.107 23.089 126.698 23.3648C126.525 24.7017 125.345 25.6488 124.065 25.6488ZM136.606 18.0531L134.066 24.3119H133.991L131.366 18.0531H128.983L132.928 26.7995L130.677 31.6665H132.986L139.064 18.0531H136.606ZM116.691 27.2904H118.906V12.8526H116.691V27.2904Z" fill="white"/>
</svg>
