<svg width="200" height="48" viewBox="0 0 200 48" fill="none" xmlns="http://www.w3.org/2000/svg">
<path d="M12.9357 14L11.2743 20.115L20.7838 13.9652L14.5643 37.1698L20.8808 37.1751L30.0686 2.90082" fill="#AFAEBE"/>
<path d="M2.70042 27.4198L0.0843811 37.1751H13.0306L18.3281 17.3302L2.70042 27.4198ZM47.6709 18.8312C47.3544 20.0074 46.7447 20.8713 45.8354 21.423C44.9283 21.9736 43.6551 22.25 42.0116 22.25H36.7901L38.6234 15.4145H43.8449C45.4863 15.4145 46.6139 15.6888 47.2257 16.2479C47.8375 16.8069 47.9852 17.6614 47.6709 18.8428M53.077 18.6951C53.7416 16.2268 53.4673 14.328 52.2521 12.9989C51.039 11.6804 48.9103 11.0158 45.8724 11.0158H34.2194L27.2046 37.1867H32.866L35.693 26.6382H39.4061C40.2394 26.6382 40.8956 26.7753 41.3745 27.039C41.8544 27.3133 42.1361 27.788 42.2226 28.4736L43.2331 37.1867H49.2985L48.3154 29.0643C48.115 27.25 47.2848 26.1846 45.8259 25.8681C47.6857 25.3302 49.2437 24.4335 50.4989 23.1888C51.7455 21.9532 52.636 20.4045 53.077 18.7057M66.8386 27.8196C66.3639 29.5918 65.6361 30.9314 64.6519 31.8702C63.6667 32.8091 62.4894 33.2732 61.116 33.2732C59.7173 33.2732 58.769 32.8196 58.2679 31.9019C57.7658 30.9842 57.7489 29.655 58.2152 27.9145C58.6814 26.174 59.4251 24.8133 60.4483 23.8323C61.4715 22.8513 62.6677 22.3607 64.0411 22.3607C65.4124 22.3607 66.3513 22.8354 66.826 23.7774C67.3112 24.7236 67.3217 26.077 66.847 27.8386L66.8386 27.8196ZM69.3196 18.558L68.6108 21.2057C68.3048 20.2563 67.711 19.4968 66.8333 18.9272C65.9536 18.3681 64.865 18.0833 63.5665 18.0833C61.9736 18.0833 60.4441 18.4947 58.9778 19.3175C57.5116 20.1403 56.2247 21.3006 55.1276 22.7985C54.0306 24.2964 53.2289 25.9947 52.712 27.904C52.2057 29.8238 52.1002 31.501 52.4061 32.9567C52.7226 34.423 53.3871 35.5411 54.4103 36.3217C55.4441 37.1129 56.7627 37.5032 58.3766 37.5032C59.659 37.5096 60.927 37.2323 62.0897 36.6909C63.2391 36.1724 64.2615 35.4092 65.0854 34.4546L64.347 37.2141H69.8217L74.8207 18.5675H69.3354L69.3196 18.558ZM94.4937 18.558H78.5728L77.4599 22.7141H86.7236L74.4768 33.2943L73.4304 37.1972H89.865L90.9778 33.0411H81.0517L93.4863 22.3027M108.507 27.788C108.015 29.6234 107.284 31.0032 106.319 31.9019C105.353 32.8091 104.185 33.2626 102.812 33.2626C99.943 33.2626 99 31.4377 99.9789 27.788C100.464 25.9736 101.198 24.6097 102.179 23.6909C103.16 22.769 104.349 22.3091 105.747 22.3091C107.118 22.3091 108.044 22.7658 108.521 23.6856C108.998 24.6034 108.994 25.9715 108.507 27.7859M111.712 19.2595C110.451 18.4747 108.843 18.0823 106.881 18.0823C104.895 18.0823 103.056 18.4726 101.364 19.2531C99.679 20.0289 98.1981 21.1868 97.039 22.635C95.847 24.1013 94.9895 25.8207 94.4631 27.7827C93.9462 29.7373 93.8829 31.4536 94.2838 32.923C94.6846 34.3892 95.5285 35.5179 96.7943 36.2985C98.0707 37.0854 99.6951 37.4768 101.689 37.4768C103.651 37.4768 105.476 37.0823 107.153 36.2975C108.83 35.5084 110.265 34.3882 111.457 32.9114C112.649 31.4409 113.503 29.7257 114.031 27.7637C114.558 25.8017 114.621 24.0886 114.22 22.616C113.82 21.1498 112.986 20.0211 111.731 19.2352M131.256 23.539L132.659 18.4652C132.185 18.2226 131.562 18.096 130.782 18.096C129.526 18.096 128.324 18.4061 127.163 19.0348C126.166 19.5686 125.318 20.3217 124.6 21.2648L125.328 18.5327L123.738 18.539H119.835L114.804 37.1783H120.355L122.966 27.4346C123.346 26.0179 124.03 24.9029 125.016 24.1118C125.997 23.3175 127.22 22.9198 128.697 22.9198C129.604 22.9198 130.448 23.1276 131.25 23.5422M146.704 27.8776C146.229 29.6181 145.512 30.9472 144.531 31.865C143.55 32.7869 142.368 33.2468 140.997 33.2468C139.626 33.2468 138.687 32.7827 138.191 31.8544C137.685 30.9209 137.674 29.5759 138.149 27.808C138.623 26.0411 139.351 24.6856 140.353 23.7468C141.355 22.8006 142.537 22.328 143.908 22.328C145.258 22.328 146.166 22.8133 146.651 23.7943C147.136 24.7753 147.147 26.1361 146.68 27.8766M150.562 19.2901C149.534 18.4673 148.22 18.0559 146.628 18.0559C145.232 18.0559 143.902 18.3723 142.64 19.0116C141.38 19.6498 140.357 20.52 139.571 21.6213L139.59 21.4947L140.521 18.5306H135.099L133.717 23.6888L133.675 23.8681L127.979 45.1171H133.538L136.407 34.4209C136.692 35.3724 137.272 36.1192 138.158 36.6593C139.044 37.1972 140.138 37.4641 141.439 37.4641C143.053 37.4641 144.593 37.0738 146.054 36.2932C147.52 35.5105 148.786 34.384 149.862 32.9283C150.938 31.4726 151.736 29.7848 152.246 27.8755C152.763 25.9631 152.868 24.2574 152.573 22.7648C152.272 21.27 151.607 20.1129 150.579 19.2943M169.002 27.8017C168.527 29.5633 167.8 30.9135 166.819 31.8418C165.838 32.7764 164.656 33.2415 163.285 33.2415C161.882 33.2415 160.932 32.788 160.437 31.8702C159.93 30.9525 159.92 29.6234 160.384 27.8829C160.848 26.1424 161.589 24.7816 162.612 23.8006C163.635 22.8196 164.832 22.3302 166.206 22.3302C167.577 22.3302 168.505 22.8048 168.991 23.7437C169.476 24.6856 169.479 26.039 169.006 27.8048L169.002 27.8017ZM171.481 18.5348L170.771 21.1825C170.465 20.2278 169.874 19.4683 168.999 18.904C168.113 18.3407 167.026 18.0601 165.729 18.0601C164.136 18.0601 162.598 18.4715 161.13 19.2943C159.664 20.1171 158.377 21.2711 157.28 22.7648C156.182 24.2584 155.381 25.961 154.864 27.8702C154.352 29.7869 154.252 31.4673 154.558 32.9293C154.867 34.385 155.533 35.5095 156.562 36.2943C157.59 37.0749 158.915 37.4694 160.528 37.4694C161.826 37.4694 163.065 37.1994 164.242 36.6572C165.388 36.1363 166.408 35.3721 167.23 34.4177L166.492 37.1793H171.966L176.964 18.5401H171.489L171.481 18.5348ZM199.948 18.5411L199.951 18.5359H196.587C196.479 18.5359 196.384 18.5411 196.286 18.5432H194.54L193.643 19.788L193.422 20.0833L193.327 20.231L186.233 30.1129L184.767 18.5411H178.957L181.9 36.1255L175.402 45.1234H181.193L182.765 42.8945C182.809 42.8291 182.849 42.7742 182.902 42.7046L184.737 40.0991L184.79 40.0253L193.011 28.3692L199.941 18.5591L199.951 18.5527H199.948V18.5411Z" fill="#AFAEBE"/>
</svg>
