<svg width="84" height="84" viewBox="0 0 84 84" fill="none" xmlns="http://www.w3.org/2000/svg">
<rect width="84" height="84" rx="24" fill="#5271FF"/>
<path d="M48.6667 38V35.3333C48.6667 31.6 45.7333 28.6667 42 28.6667C38.2667 28.6667 35.3333 31.6 35.3333 35.3333V38C33.0667 38 31.3333 39.7333 31.3333 42V51.3333C31.3333 53.6 33.0667 55.3333 35.3333 55.3333H48.6667C50.9333 55.3333 52.6667 53.6 52.6667 51.3333V42C52.6667 39.7333 50.9333 38 48.6667 38ZM38 35.3333C38 33.0667 39.7333 31.3333 42 31.3333C44.2667 31.3333 46 33.0667 46 35.3333V38H38V35.3333ZM43.4667 46.6667L43.3333 46.8V48.6667C43.3333 49.4667 42.8 50 42 50C41.2 50 40.6667 49.4667 40.6667 48.6667V46.8C39.8667 46 39.7333 44.8 40.5333 44C41.3333 43.2 42.5333 43.0667 43.3333 43.8667C44.1333 44.5333 44.2667 45.8667 43.4667 46.6667Z" fill="white"/>
</svg>
