<svg width="142" height="48" viewBox="0 0 142 48" fill="none" xmlns="http://www.w3.org/2000/svg">
<path fill-rule="evenodd" clip-rule="evenodd" d="M129.66 4.71737V47.5184H141.435V2.62494L129.66 4.71737Z" fill="#AFAEBE"/>
<path fill-rule="evenodd" clip-rule="evenodd" d="M112.472 4.71737L124.24 2.62494V47.5184H112.472V4.71737Z" fill="#AFAEBE"/>
<path fill-rule="evenodd" clip-rule="evenodd" d="M95.7103 47.5185V14.6824H107.483V47.5185H95.7103Z" fill="#AFAEBE"/>
<path fill-rule="evenodd" clip-rule="evenodd" d="M95.7917 5.76834C95.7917 2.58369 98.3916 0 101.593 0C104.8 0 107.399 2.58369 107.399 5.76834C107.399 8.95535 104.8 11.5331 101.593 11.5331C98.3916 11.5331 95.7917 8.95535 95.7917 5.76834Z" fill="#AFAEBE"/>
<path fill-rule="evenodd" clip-rule="evenodd" d="M89.0697 14.2009C78.1924 14.5494 72.6661 19.4016 72.6661 29.0463V47.5185H84.5372V32.4521C84.5372 26.68 85.2989 24.2054 92.1939 23.9692V14.3716C91.0345 14.126 89.0697 14.2009 89.0697 14.2009Z" fill="#AFAEBE"/>
<path fill-rule="evenodd" clip-rule="evenodd" d="M57.1301 14.6449C56.8697 15.3007 54.9881 20.5931 50.4252 26.0769V2.62494L38.2752 5.01342V47.5184H50.4252V34.3779C53.9434 39.6238 55.682 47.5184 55.682 47.5184H70.2323C68.7936 41.572 62.498 30.6106 62.498 30.6106C68.1504 23.4876 70.63 15.902 71.0261 14.6449H57.1301Z" fill="#AFAEBE"/>
<path fill-rule="evenodd" clip-rule="evenodd" d="M17.9008 19.3266C16.4132 19.2311 12.9664 19.0082 12.9664 15.9264C12.9664 12.2075 17.9253 12.2075 19.7862 12.2075C23.0594 12.2075 27.2941 13.1667 30.3221 14.0679C30.3221 14.0679 32.0079 14.66 33.4428 15.2633L33.5767 15.3007V5.11456L33.3974 5.06031C29.8226 3.8183 25.6725 2.62494 17.9742 2.62494C4.70234 2.62494 -3.05176e-05 10.3041 -3.05176e-05 16.8892C-3.05176e-05 20.6813 1.63655 29.6139 16.8316 30.6425C18.1231 30.7212 21.5434 30.9179 21.5434 34.1025C21.5434 36.7331 18.7436 38.2806 14.0354 38.2806C8.87679 38.2806 3.86896 36.9767 0.829571 35.7344V46.2222C5.38111 47.4117 10.5134 48 16.5282 48C29.5 48 35.3149 40.7328 35.3149 33.5275C35.3149 25.3613 28.8121 20.0535 17.9008 19.3266Z" fill="#AFAEBE"/>
</svg>
