<svg width="116" height="48" viewBox="0 0 116 48" fill="none" xmlns="http://www.w3.org/2000/svg">
<path fill-rule="evenodd" clip-rule="evenodd" d="M114.509 27.4176H99.0336C99.3984 31.1232 102.106 32.3136 105.178 32.3136C108.326 32.3136 110.861 31.6032 112.954 30.4896V36.864C110.298 38.3921 107.259 39.1252 104.198 38.976C96.4992 38.976 91.0848 34.176 91.0848 24.6144C91.0848 16.5696 95.6736 10.176 103.181 10.176C110.707 10.176 114.624 16.4736 114.624 24.576C114.624 25.344 114.547 26.9952 114.509 27.4176ZM103.142 16.6272C101.165 16.6272 98.976 18.0288 98.976 21.5808H107.136C107.136 18.0288 105.082 16.6272 103.142 16.6272ZM78.624 38.976C75.8592 38.976 74.1696 37.824 73.056 36.9792L73.0176 45.8688L65.1072 47.5392V10.6944H72.3264L72.48 12.6528C74.1544 11.0646 76.3737 10.1782 78.6816 10.176C84.2496 10.176 89.472 15.168 89.472 24.384C89.472 34.4256 84.288 38.976 78.624 38.976ZM76.8 17.184C74.976 17.184 73.8432 17.8368 73.0176 18.7392L73.056 30.4896C73.824 31.3344 74.9376 31.9872 76.8 31.9872C79.7184 31.9872 81.6768 28.8192 81.6768 24.5568C81.6768 20.4288 79.68 17.184 76.8 17.184ZM54.2208 10.6944H62.1504V38.4192H54.2208V10.6944ZM54.2208 1.6704L62.1504 0V6.4512L54.2208 8.1408V1.6896V1.6704ZM45.9264 19.6224V38.4192H38.016V10.6944H45.12L45.3504 13.0368C47.2704 9.6384 51.2448 10.3296 52.3008 10.6944V17.9712C51.3024 17.6448 47.904 17.1456 45.9264 19.6224ZM29.5104 28.6848C29.5104 33.3504 34.5024 31.9104 35.5008 31.488V37.9392C34.4448 38.5152 32.544 38.976 29.952 38.976C28.8717 39.0075 27.7963 38.8189 26.7912 38.4217C25.786 38.0245 24.8722 37.427 24.1053 36.6654C23.3384 35.9039 22.7344 34.9944 22.3302 33.9921C21.9259 32.9898 21.7297 31.9157 21.7536 30.8352L21.7728 5.5488L29.4912 3.8976V10.6944H35.52V17.472H29.5104V28.704V28.6848ZM20.0832 30.0288C20.0832 35.7312 15.648 38.976 9.0816 38.976C6.13501 38.9738 3.22032 38.366 0.5184 37.1904V29.6448C3.168 31.0848 6.4704 32.16 9.0816 32.16C10.848 32.16 12.0192 31.6992 12.0192 30.24C12.0192 26.4384 0 27.8592 0 19.104C0 13.5168 4.3776 10.176 10.7904 10.176C13.4016 10.176 16.0128 10.56 18.6432 11.616V19.0656C16.2124 17.7863 13.5175 17.0895 10.7712 17.0304C9.12 17.0304 8.0064 17.5104 8.0064 18.7584C8.0064 22.3104 20.0832 20.6208 20.0832 30.048V30.0288Z" fill="#AFAEBE"/>
</svg>
