<svg width="84" height="84" viewBox="0 0 84 84" fill="none" xmlns="http://www.w3.org/2000/svg">
<rect width="84" height="84" rx="24" fill="#5271FF"/>
<g clip-path="url(#clip0_1_7375)">
<path d="M51.4267 32.5733L49.54 34.46C51.4734 36.3867 52.6667 39.0533 52.6667 42C52.6667 47.8933 47.8934 52.6667 42 52.6667C36.1067 52.6667 31.3334 47.8933 31.3334 42C31.3334 36.56 35.4067 32.08 40.6667 31.4267V34.12C36.8867 34.7533 34 38.04 34 42C34 46.42 37.58 50 42 50C46.42 50 50 46.42 50 42C50 39.7933 49.1067 37.7933 47.66 36.34L45.7734 38.2267C46.7724 39.2283 47.3334 40.5853 47.3334 42C47.3334 44.9467 44.9467 47.3333 42 47.3333C39.0534 47.3333 36.6667 44.9467 36.6667 42C36.6667 39.52 38.3734 37.4467 40.6667 36.8533V39.7C39.8734 40.16 39.3334 41.0133 39.3334 42C39.3334 43.4733 40.5267 44.6667 42 44.6667C43.4734 44.6667 44.6667 43.4733 44.6667 42C44.6667 41.0133 44.1267 40.1667 43.3334 39.7V28.6667H42C34.6334 28.6667 28.6667 34.6333 28.6667 42C28.6667 49.36 34.6334 55.3333 42 55.3333C49.36 55.3333 55.3334 49.36 55.3334 42C55.3334 38.32 53.84 34.9867 51.4267 32.5733Z" fill="white"/>
</g>
<defs>
<clipPath id="clip0_1_7375">
<rect width="32" height="32" fill="white" transform="translate(26 26)"/>
</clipPath>
</defs>
</svg>
