<svg width="84" height="84" viewBox="0 0 84 84" fill="none" xmlns="http://www.w3.org/2000/svg">
<rect width="84" height="84" rx="24" fill="#5271FF"/>
<path d="M44.8 37.678C44.8 37.39 44.663 37.119 44.43 36.946L36.669 31.185C36.387 30.976 36.008 30.942 35.69 31.096C35.373 31.251 35.173 31.568 35.173 31.917V34.388H28.933C28.418 34.388 28 34.797 28 35.305V40.054C28 40.561 28.418 40.971 28.933 40.971H35.173V43.44C35.173 43.789 35.373 44.106 35.691 44.261C35.823 44.325 35.965 44.357 36.107 44.357C36.307 44.357 36.505 44.294 36.67 44.171L44.431 38.408C44.663 38.234 44.8 37.965 44.8 37.678ZM55.067 43.031H48.812V40.56C48.812 40.211 48.611 39.894 48.293 39.739C47.978 39.585 47.598 39.619 47.314 39.83L39.569 45.592C39.336 45.766 39.199 46.035 39.199 46.322C39.199 46.61 39.336 46.881 39.569 47.053L47.314 52.814C47.479 52.937 47.678 53 47.878 53C48.02 53 48.162 52.969 48.294 52.904C48.611 52.749 48.812 52.431 48.812 52.083V49.612H55.067C55.582 49.612 56 49.203 56 48.695V43.948C56 43.441 55.582 43.031 55.067 43.031Z" fill="white"/>
</svg>
