<svg width="24" height="24" viewBox="0 0 24 24" fill="none" xmlns="http://www.w3.org/2000/svg">
<path fill-rule="evenodd" clip-rule="evenodd" d="M12 22C17.523 22 22 17.523 22 12C22 6.477 17.523 2 12 2C6.477 2 2 6.477 2 12C2 17.523 6.477 22 12 22ZM15 10C15 10.7956 14.6839 11.5587 14.1213 12.1213C13.5587 12.6839 12.7956 13 12 13C11.2044 13 10.4413 12.6839 9.87868 12.1213C9.31607 11.5587 9 10.7956 9 10C9 9.20435 9.31607 8.44129 9.87868 7.87868C10.4413 7.31607 11.2044 7 12 7C12.7956 7 13.5587 7.31607 14.1213 7.87868C14.6839 8.44129 15 9.20435 15 10ZM6 17C6.69801 16.0679 7.60377 15.3114 8.64532 14.7906C9.68687 14.2699 10.8355 13.9991 12 14C13.1645 13.9991 14.3131 14.2699 15.3547 14.7906C16.3962 15.3114 17.302 16.0679 18 17C17.302 17.9321 16.3962 18.6886 15.3547 19.2094C14.3131 19.7301 13.1645 20.0009 12 20C10.8355 20.0009 9.68687 19.7301 8.64532 19.2094C7.60377 18.6886 6.69801 17.9321 6 17Z" fill="white"/>
</svg>
